<mxfile host="app.diagrams.net" agent="Mozilla/5.0 (Macintosh; Intel Mac OS X 10_15_7) AppleWebKit/537.36 (KHTML, like Gecko) Chrome/134.0.0.0 Safari/537.36" version="26.2.8">
  <diagram name="LLM Agent Workflow" id="FEIlhDXgywL5_TAaKdOH">
    <mxGraphModel dx="542" dy="368" grid="1" gridSize="10" guides="1" tooltips="1" connect="1" arrows="1" fold="1" page="1" pageScale="1" pageWidth="827" pageHeight="1169" math="0" shadow="0">
      <root>
        <mxCell id="0" />
        <mxCell id="1" parent="0" />
        <mxCell id="Rh3jeqqEsbUjfGCfX_CR-1" value="Agent Initialization" style="rounded=1;whiteSpace=wrap;html=1;fillColor=#e1f5fe;strokeColor=#01579b;fontStyle=1" parent="1" vertex="1">
          <mxGeometry x="320" y="40" width="160" height="60" as="geometry" />
        </mxCell>
        <mxCell id="Rh3jeqqEsbUjfGCfX_CR-2" value="System Prompt Creation" style="rounded=1;whiteSpace=wrap;html=1;fillColor=#e1f5fe;strokeColor=#01579b;fontStyle=1" parent="1" vertex="1">
          <mxGeometry x="320" y="160" width="160" height="60" as="geometry" />
        </mxCell>
        <mxCell id="Rh3jeqqEsbUjfGCfX_CR-3" value="Receive Task" style="rounded=1;whiteSpace=wrap;html=1;fillColor=#e8f5e9;strokeColor=#2e7d32;fontStyle=1" parent="1" vertex="1">
          <mxGeometry x="320" y="280" width="160" height="60" as="geometry" />
        </mxCell>
        <mxCell id="Rh3jeqqEsbUjfGCfX_CR-4" value="Solution Loop&lt;br&gt;(nr_steps &lt;= max_steps)" style="rhombus;whiteSpace=wrap;html=1;fillColor=#fff8e1;strokeColor=#ff6f00;fontStyle=1" parent="1" vertex="1">
          <mxGeometry x="300" y="400" width="200" height="120" as="geometry" />
        </mxCell>
        <mxCell id="Rh3jeqqEsbUjfGCfX_CR-6" value="Execute code&lt;br&gt;(LocalPythonExecutor)" style="rounded=1;whiteSpace=wrap;html=1;fillColor=#e8f5e9;strokeColor=#2e7d32;fontStyle=1" parent="1" vertex="1">
          <mxGeometry x="320" y="767" width="160" height="60" as="geometry" />
        </mxCell>
        <mxCell id="Rh3jeqqEsbUjfGCfX_CR-7" value="&lt;font style=&quot;font-size: 11px;&quot;&gt;Check for FinalAnswerTool&lt;/font&gt;" style="rhombus;whiteSpace=wrap;html=1;fillColor=#fff8e1;strokeColor=#ff6f00;fontStyle=1" parent="1" vertex="1">
          <mxGeometry x="320" y="887" width="160" height="120" as="geometry" />
        </mxCell>
        <mxCell id="Rh3jeqqEsbUjfGCfX_CR-8" value="Final Answer" style="rounded=1;whiteSpace=wrap;html=1;fillColor=#ffebee;strokeColor=#c62828;fontStyle=1" parent="1" vertex="1">
          <mxGeometry x="649" y="917" width="160" height="60" as="geometry" />
        </mxCell>
        <mxCell id="Rh3jeqqEsbUjfGCfX_CR-9" value="Maximum Steps Exceeded&lt;br&gt;/ No Answer" style="rounded=1;whiteSpace=wrap;html=1;fillColor=#ffebee;strokeColor=#c62828;fontStyle=1" parent="1" vertex="1">
          <mxGeometry x="649" y="430" width="160" height="60" as="geometry" />
        </mxCell>
        <mxCell id="Rh3jeqqEsbUjfGCfX_CR-10" value="Agent Class Initialization" style="shape=swimlane;startSize=30;html=1;whiteSpace=wrap;rounded=1;fillColor=#f5f5f5;strokeColor=#666666;dashed=1;" parent="1" vertex="1">
          <mxGeometry x="240" width="320" height="240" as="geometry" />
        </mxCell>
        <mxCell id="Rh3jeqqEsbUjfGCfX_CR-21" value="&lt;font style=&quot;font-size: 8px;&quot;&gt;[make agent aware of available tools]&lt;/font&gt;" style="text;html=1;align=center;verticalAlign=middle;whiteSpace=wrap;rounded=0;" parent="Rh3jeqqEsbUjfGCfX_CR-10" vertex="1">
          <mxGeometry x="35" y="190" width="250" height="30" as="geometry" />
        </mxCell>
        <mxCell id="Rh3jeqqEsbUjfGCfX_CR-12" value="Initialize tools, imports, executor" style="edgeStyle=orthogonalEdgeStyle;rounded=0;orthogonalLoop=1;jettySize=auto;html=1;exitX=0.5;exitY=1;exitDx=0;exitDy=0;entryX=0.5;entryY=0;entryDx=0;entryDy=0;" parent="1" source="Rh3jeqqEsbUjfGCfX_CR-1" target="Rh3jeqqEsbUjfGCfX_CR-2" edge="1">
          <mxGeometry relative="1" as="geometry" />
        </mxCell>
        <mxCell id="Rh3jeqqEsbUjfGCfX_CR-13" value="Add to history" style="edgeStyle=orthogonalEdgeStyle;rounded=0;orthogonalLoop=1;jettySize=auto;html=1;exitX=0.5;exitY=1;exitDx=0;exitDy=0;entryX=0.5;entryY=0;entryDx=0;entryDy=0;" parent="1" source="Rh3jeqqEsbUjfGCfX_CR-2" target="Rh3jeqqEsbUjfGCfX_CR-3" edge="1">
          <mxGeometry relative="1" as="geometry" />
        </mxCell>
        <mxCell id="Rh3jeqqEsbUjfGCfX_CR-14" value="Add to history" style="edgeStyle=orthogonalEdgeStyle;rounded=0;orthogonalLoop=1;jettySize=auto;html=1;exitX=0.5;exitY=1;exitDx=0;exitDy=0;entryX=0.5;entryY=0;entryDx=0;entryDy=0;" parent="1" source="Rh3jeqqEsbUjfGCfX_CR-3" target="Rh3jeqqEsbUjfGCfX_CR-4" edge="1">
          <mxGeometry relative="1" as="geometry" />
        </mxCell>
        <mxCell id="Rh3jeqqEsbUjfGCfX_CR-15" value="&lt;span style=&quot;white-space: pre;&quot;&gt;&#x9;&lt;/span&gt;Generate thought" style="edgeStyle=orthogonalEdgeStyle;rounded=0;orthogonalLoop=1;jettySize=auto;html=1;exitX=0.5;exitY=1;exitDx=0;exitDy=0;entryX=0.5;entryY=0;entryDx=0;entryDy=0;" parent="1" target="Rh3jeqqEsbUjfGCfX_CR-5" edge="1">
          <mxGeometry x="0.6022" y="-10" relative="1" as="geometry">
            <mxPoint x="400" y="520" as="sourcePoint" />
            <mxPoint x="400" y="600" as="targetPoint" />
            <mxPoint as="offset" />
          </mxGeometry>
        </mxCell>
        <mxCell id="Rh3jeqqEsbUjfGCfX_CR-28" value="Yes" style="edgeLabel;html=1;align=center;verticalAlign=middle;resizable=0;points=[];" parent="Rh3jeqqEsbUjfGCfX_CR-15" vertex="1" connectable="0">
          <mxGeometry x="-0.7329" y="-1" relative="1" as="geometry">
            <mxPoint as="offset" />
          </mxGeometry>
        </mxCell>
        <mxCell id="Rh3jeqqEsbUjfGCfX_CR-16" value="Extract code action" style="edgeStyle=orthogonalEdgeStyle;rounded=0;orthogonalLoop=1;jettySize=auto;html=1;exitX=0.5;exitY=1;exitDx=0;exitDy=0;entryX=0.5;entryY=0;entryDx=0;entryDy=0;" parent="1" source="Rh3jeqqEsbUjfGCfX_CR-5" target="Rh3jeqqEsbUjfGCfX_CR-6" edge="1">
          <mxGeometry relative="1" as="geometry" />
        </mxCell>
        <mxCell id="Rh3jeqqEsbUjfGCfX_CR-17" value="Process result" style="edgeStyle=orthogonalEdgeStyle;rounded=0;orthogonalLoop=1;jettySize=auto;html=1;exitX=0.5;exitY=1;exitDx=0;exitDy=0;entryX=0.5;entryY=0;entryDx=0;entryDy=0;" parent="1" source="Rh3jeqqEsbUjfGCfX_CR-6" target="Rh3jeqqEsbUjfGCfX_CR-7" edge="1">
          <mxGeometry relative="1" as="geometry" />
        </mxCell>
        <mxCell id="Rh3jeqqEsbUjfGCfX_CR-18" value="Yes: Return output" style="edgeStyle=orthogonalEdgeStyle;rounded=0;orthogonalLoop=1;jettySize=auto;html=1;exitX=1;exitY=0.5;exitDx=0;exitDy=0;entryX=0;entryY=0.5;entryDx=0;entryDy=0;" parent="1" source="Rh3jeqqEsbUjfGCfX_CR-7" target="Rh3jeqqEsbUjfGCfX_CR-8" edge="1">
          <mxGeometry relative="1" as="geometry" />
        </mxCell>
        <mxCell id="Rh3jeqqEsbUjfGCfX_CR-19" value="No: Continue loop&lt;br&gt;Add observation to history" style="edgeStyle=orthogonalEdgeStyle;rounded=0;orthogonalLoop=1;jettySize=auto;html=1;exitX=0;exitY=0.5;exitDx=0;exitDy=0;entryX=0;entryY=0.5;entryDx=0;entryDy=0;" parent="1" source="Rh3jeqqEsbUjfGCfX_CR-7" target="Rh3jeqqEsbUjfGCfX_CR-4" edge="1">
          <mxGeometry x="-0.2" relative="1" as="geometry">
            <Array as="points">
              <mxPoint x="200" y="947" />
              <mxPoint x="200" y="460" />
            </Array>
            <mxPoint as="offset" />
          </mxGeometry>
        </mxCell>
        <mxCell id="Rh3jeqqEsbUjfGCfX_CR-20" value="No" style="edgeStyle=orthogonalEdgeStyle;rounded=0;orthogonalLoop=1;jettySize=auto;html=1;exitX=1;exitY=0.5;exitDx=0;exitDy=0;entryX=0;entryY=0.5;entryDx=0;entryDy=0;" parent="1" source="Rh3jeqqEsbUjfGCfX_CR-4" target="Rh3jeqqEsbUjfGCfX_CR-9" edge="1">
          <mxGeometry relative="1" as="geometry" />
        </mxCell>
        <mxCell id="Rh3jeqqEsbUjfGCfX_CR-22" value="&lt;font style=&quot;font-size: 8px;&quot;&gt;[i.e. check if result &lt;br&gt;contains final answer]&lt;/font&gt;" style="text;html=1;align=center;verticalAlign=middle;whiteSpace=wrap;rounded=0;" parent="1" vertex="1">
          <mxGeometry x="275" y="952" width="250" height="30" as="geometry" />
        </mxCell>
        <mxCell id="Rh3jeqqEsbUjfGCfX_CR-11" value="Agent Step Method" style="shape=swimlane;startSize=30;html=1;whiteSpace=wrap;rounded=1;fillColor=#f5f5f5;strokeColor=#666666;dashed=1;" parent="1" vertex="1">
          <mxGeometry x="240" y="550" width="320" height="477" as="geometry">
            <mxRectangle x="240" y="550" width="140" height="30" as="alternateBounds" />
          </mxGeometry>
        </mxCell>
        <mxCell id="Rh3jeqqEsbUjfGCfX_CR-24" value="&lt;font style=&quot;font-size: 8px;&quot;&gt;[generate thought based on history &amp;amp;&lt;br&gt;propose code action]&lt;/font&gt;" style="text;html=1;align=center;verticalAlign=middle;whiteSpace=wrap;rounded=0;" parent="Rh3jeqqEsbUjfGCfX_CR-11" vertex="1">
          <mxGeometry x="-50" y="117" width="425" height="30" as="geometry" />
        </mxCell>
        <mxCell id="Rh3jeqqEsbUjfGCfX_CR-5" value="LLM completion call" style="rounded=1;whiteSpace=wrap;html=1;fillColor=#e8f5e9;strokeColor=#2e7d32;fontStyle=1" parent="Rh3jeqqEsbUjfGCfX_CR-11" vertex="1">
          <mxGeometry x="80" y="70" width="160" height="77" as="geometry" />
        </mxCell>
        <mxCell id="Rh3jeqqEsbUjfGCfX_CR-27" value="&lt;span style=&quot;font-size: 8px;&quot;&gt;[generate thought &amp;amp; propose code action]&lt;/span&gt;" style="text;html=1;align=center;verticalAlign=middle;whiteSpace=wrap;rounded=0;" parent="Rh3jeqqEsbUjfGCfX_CR-11" vertex="1">
          <mxGeometry x="35" y="113" width="250" height="27" as="geometry" />
        </mxCell>
      </root>
    </mxGraphModel>
  </diagram>
</mxfile>
